<svg width="181" height="41" viewBox="0 0 181 41" fill="none" xmlns="http://www.w3.org/2000/svg">
<g clip-path="url(#clip0_55_287)">
<path d="M161.453 31.953H167.957C168.209 32.773 169.067 33.5929 170.675 33.5929C172.852 33.5929 173.602 32.2407 173.602 30.2412V28.817H173.458C172.384 30.0685 170.956 30.9892 168.851 30.9892C164.705 30.9892 161.1 27.9251 161.1 21.9336C161.1 16.4456 164.063 12.166 168.534 12.166C171.108 12.166 172.679 13.2018 173.718 14.8417H173.826V12.7414H180.257V29.3493C180.257 32.4133 179.183 34.8013 177.575 36.2326C175.895 37.7287 173.501 38.3329 170.783 38.3329C165.671 38.3329 162.102 36.2254 161.453 31.953ZM173.891 21.61C173.891 19.222 172.751 17.2944 170.783 17.2944C168.887 17.2944 167.676 19.0062 167.676 21.61C167.676 24.1777 168.894 26.0263 170.783 26.0263C172.744 26.0334 173.891 24.1418 173.891 21.61ZM153.919 16.0141H154.027C155.418 13.3384 157.243 12.3458 159.564 12.3458C160.098 12.3458 160.458 12.4178 160.675 12.5256V18.4092H160.53C156.565 17.6972 154.243 19.5888 154.243 23.8972V31.917H147.487V12.7414H153.919V16.0141ZM0.25 5.03809H13.4733C15.9752 5.03809 17.9003 5.64227 19.263 6.74994C20.7988 7.99427 21.6207 9.84997 21.6207 12.0581C21.6207 14.6259 20.5825 16.2299 18.4411 17.2296V17.3375C21.2314 18.2654 22.8392 20.7612 22.8392 23.7893C22.8392 26.6736 21.7289 28.9249 19.9119 30.2771C18.3762 31.3848 16.379 31.917 13.7329 31.917H0.25V5.03809ZM12.8316 25.9615C14.4395 25.9615 15.6147 24.9977 15.6147 23.2139C15.6147 21.3582 14.3313 20.4663 12.7956 20.4663H7.57546V25.9543H12.8316V25.9615ZM12.1467 15.5537C13.5743 15.5537 14.6125 14.7697 14.6125 13.2017C14.6125 11.6697 13.5382 10.9217 12.1106 10.9217H7.57546V15.5537H12.1467Z" fill="#454545" fill-opacity="0.6"/>
<path d="M24.0505 5.03809H30.9794V31.917H24.0505V5.03809ZM32.306 22.358C32.306 16.3018 36.2355 12.202 42.3137 12.202C48.3918 12.202 52.2492 16.3018 52.2492 22.358C52.2492 28.4574 48.3918 32.514 42.3137 32.514C36.2355 32.5212 32.306 28.4574 32.306 22.358ZM45.3852 22.358C45.3852 19.0062 44.3108 16.906 42.2416 16.906C40.1723 16.906 39.1701 19.0062 39.1701 22.358C39.1701 25.7457 40.1723 27.846 42.2416 27.846C44.3108 27.8532 45.3852 25.7457 45.3852 22.358ZM53.0351 22.358C53.0351 16.3018 56.9646 12.202 63.0427 12.202C69.1208 12.202 72.9782 16.3018 72.9782 22.358C72.9782 28.4574 69.1208 32.514 63.0427 32.514C56.9646 32.5212 53.0351 28.4574 53.0351 22.358ZM66.1142 22.358C66.1142 19.0062 65.0399 16.906 62.9706 16.906C60.9013 16.906 59.8991 19.0062 59.8991 22.358C59.8991 25.7457 60.9013 27.846 62.9706 27.846C65.0399 27.8532 66.1142 25.7457 66.1142 22.358ZM74.2976 12.7414H80.729V15.6257H80.8372C82.1206 13.3816 83.8726 12.166 86.6269 12.166C89.0567 12.166 90.8808 13.3744 91.8109 15.4818H91.9191C93.4909 12.95 95.5313 12.166 97.889 12.166C102.359 12.166 104.284 15.4459 104.284 19.8621V31.9098H97.5285V21.0777C97.5285 19.1141 96.9229 17.8338 95.2069 17.8338C93.5269 17.8338 92.6689 19.4018 92.6689 21.4733V31.917H85.9059V21.0777C85.9059 19.1141 85.3002 17.8338 83.5842 17.8338C81.9043 17.8338 81.0463 19.4018 81.0463 21.4733V31.917H74.2976V12.7414ZM112.533 29.4212H112.461V31.917H106.029V5.03809H112.785V14.7338H112.893C114.177 13.0579 115.893 12.166 118.358 12.166C123.182 12.166 125.972 16.5176 125.972 22.2861C125.972 28.8098 122.937 32.55 117.933 32.55C115.857 32.5572 113.715 31.5574 112.533 29.4212ZM119.108 22.2213C119.108 19.1213 117.969 17.1217 115.929 17.1217C113.859 17.1217 112.533 19.1213 112.533 22.2213C112.533 25.2854 113.852 27.3209 115.929 27.3209C117.998 27.3137 119.108 25.3214 119.108 22.2213ZM126.83 22.2933C126.83 16.3018 130.796 12.1372 136.55 12.1372C139.405 12.1372 141.625 13.0291 143.305 14.6331C145.519 16.7693 146.521 20.1211 146.449 24.077H133.55C133.839 26.465 134.978 27.6806 137.018 27.6806C138.201 27.6806 139.232 27.1483 139.664 25.8608H146.168C145.029 30.2411 141.633 32.4565 136.809 32.4565C130.832 32.4493 126.83 28.4214 126.83 22.2933ZM133.55 20.2937H139.693C139.585 17.9777 138.302 16.7621 136.694 16.7621C134.834 16.7621 133.795 18.0856 133.55 20.2937Z" fill="#454545" fill-opacity="0.6"/>
</g>
<defs>
<clipPath id="clip0_55_287">
<rect width="180" height="40" fill="white" transform="translate(0.25 0.0380859)"/>
</clipPath>
</defs>
</svg>
