<svg width="89" height="89" viewBox="0 0 89 89" fill="none" xmlns="http://www.w3.org/2000/svg">
<path d="M0 44.1C0 19.7442 19.7442 0 44.1 0C68.4557 0 88.2 19.7442 88.2 44.1C88.2 68.4557 68.4557 88.2 44.1 88.2C19.7442 88.2 0 68.4557 0 44.1Z" fill="#1C2B28"/>
<path d="M61.8343 34.647L50.2405 23.0532C50.0866 22.8994 49.9039 22.7775 49.7028 22.6944C49.5018 22.6113 49.2863 22.5686 49.0687 22.5688H29.1937C28.3152 22.5688 27.4727 22.9177 26.8515 23.539C26.2302 24.1602 25.8812 25.0027 25.8812 25.8813V62.3188C25.8812 63.1973 26.2302 64.0398 26.8515 64.661C27.4727 65.2823 28.3152 65.6313 29.1937 65.6313H59.0062C59.8848 65.6313 60.7273 65.2823 61.3485 64.661C61.9698 64.0398 62.3187 63.1973 62.3187 62.3188V35.8188C62.3189 35.6012 62.2762 35.3857 62.1931 35.1847C62.11 34.9836 61.9881 34.8009 61.8343 34.647ZM50.725 54.0375H37.475C37.0357 54.0375 36.6145 53.863 36.3039 53.5524C35.9932 53.2418 35.8187 52.8205 35.8187 52.3813C35.8187 51.942 35.9932 51.5207 36.3039 51.2101C36.6145 50.8995 37.0357 50.725 37.475 50.725H50.725C51.1643 50.725 51.5855 50.8995 51.8961 51.2101C52.2068 51.5207 52.3812 51.942 52.3812 52.3813C52.3812 52.8205 52.2068 53.2418 51.8961 53.5524C51.5855 53.863 51.1643 54.0375 50.725 54.0375ZM50.725 47.4125H37.475C37.0357 47.4125 36.6145 47.238 36.3039 46.9274C35.9932 46.6168 35.8187 46.1955 35.8187 45.7563C35.8187 45.317 35.9932 44.8957 36.3039 44.5851C36.6145 44.2745 37.0357 44.1 37.475 44.1H50.725C51.1643 44.1 51.5855 44.2745 51.8961 44.5851C52.2068 44.8957 52.3812 45.317 52.3812 45.7563C52.3812 46.1955 52.2068 46.6168 51.8961 46.9274C51.5855 47.238 51.1643 47.4125 50.725 47.4125ZM49.0687 35.8188V26.7094L58.1781 35.8188H49.0687Z" fill="white"/>
</svg>
