<svg width="239" height="41" viewBox="0 0 239 41" fill="none" xmlns="http://www.w3.org/2000/svg">
<g clip-path="url(#clip0_55_285)">
<path fill-rule="evenodd" clip-rule="evenodd" d="M0.041626 28.0933C0.041626 29.8331 2.1203 31.2114 4.66089 31.2114H23.3359V28.0481H4.56191V24.8848H23.138C25.6785 24.8848 27.9552 23.4387 27.9552 21.6988V21.7666V15.44C27.9552 13.7001 25.6785 12.0281 23.138 12.0281H4.66089C2.1203 12.0281 0.041626 13.6775 0.041626 15.44V28.0933ZM4.56191 15.1914H23.3359V21.7214H4.56191V15.1914Z" fill="#454545" fill-opacity="0.6"/>
<path fill-rule="evenodd" clip-rule="evenodd" d="M85.7619 12.0281H67.2849C64.7443 12.0281 62.3357 13.7001 62.3357 15.44V28.0933V28.0255C62.3357 29.7653 64.7443 31.2114 67.2849 31.2114H85.729V34.3748H66.9549V37.5381H85.7619C88.3025 37.5381 90.3482 36.1824 90.3482 34.4199V15.44C90.3482 13.7001 88.3025 12.0281 85.7619 12.0281ZM66.9549 15.1914H85.729V28.0481H66.9549V15.1914Z" fill="#454545" fill-opacity="0.6"/>
<path fill-rule="evenodd" clip-rule="evenodd" d="M49.8307 12.0281H35.9729C33.4323 12.0281 31.1557 13.7001 31.1557 15.44V31.2114H35.7749V15.1914H49.8307C52.3713 15.1914 54.5489 16.8635 54.5489 18.6033V31.2114H59.1682V18.6033C59.1352 15.1236 54.9119 12.0281 49.8307 12.0281Z" fill="#454545" fill-opacity="0.6"/>
<path fill-rule="evenodd" clip-rule="evenodd" d="M116.909 28.0481H98.135V18.6033C98.135 16.8635 100.643 15.1914 103.216 15.1914H116.909V31.2114H121.528V15.44C121.528 13.7001 119.615 12.0281 117.074 12.0281H103.216C98.102 12.0281 93.5158 15.1236 93.5158 18.6033V28.0933C93.5158 29.8331 96.0234 31.2114 98.597 31.2114H106.747C110.838 31.2114 115.193 30.0365 116.909 28.0933V31.2114" fill="#454545" fill-opacity="0.6"/>
<path fill-rule="evenodd" clip-rule="evenodd" d="M222.855 2.53809H218.236V31.2114H222.855V15.1914H237.01V12.0281H222.855V2.53809Z" fill="#454545" fill-opacity="0.6"/>
<path fill-rule="evenodd" clip-rule="evenodd" d="M147.792 12.0281H129.876C127.335 12.0281 124.696 13.7001 124.696 15.44V28.0933V28.0255C124.696 29.7653 127.335 31.2114 129.876 31.2114H152.675V2.53809H147.759V12.0281H147.792ZM129.315 15.1914H147.792V28.0481H129.315V15.1914Z" fill="#454545" fill-opacity="0.6"/>
<path fill-rule="evenodd" clip-rule="evenodd" d="M187.056 28.0933C187.056 29.8331 189.728 31.2114 192.269 31.2114H210.449V28.0481H191.675V24.8848H210.746C213.287 24.8848 215.068 23.4387 215.068 21.6988V21.7666V15.44C215.068 13.7001 213.32 12.0281 210.746 12.0281H192.269C189.728 12.0281 187.056 13.7001 187.056 15.44V28.0933ZM191.675 15.1914H210.449V21.7214H191.675V15.1914Z" fill="#454545" fill-opacity="0.6"/>
<path fill-rule="evenodd" clip-rule="evenodd" d="M179.434 12.0281H160.957C158.416 12.0281 155.876 13.7001 155.876 15.44V28.0933V28.0255C155.876 29.7653 158.416 31.2114 160.957 31.2114H179.269V34.3748H160.792V37.5381H179.434C181.975 37.5381 183.888 36.1824 183.888 34.4199V15.44C183.888 13.7001 181.975 12.0281 179.434 12.0281ZM160.792 15.1914H179.269V28.0481H160.792V15.1914Z" fill="#454545" fill-opacity="0.6"/>
</g>
<defs>
<clipPath id="clip0_55_285">
<rect width="238.333" height="40" fill="white" transform="translate(0.041626 0.0380859)"/>
</clipPath>
</defs>
</svg>
