<svg width="115" height="41" viewBox="0 0 115 41" fill="none" xmlns="http://www.w3.org/2000/svg">
<path fill-rule="evenodd" clip-rule="evenodd" d="M70.0531 13.1763C68.2216 13.1763 66.7717 13.5566 65.3218 14.3932C65.3218 10.21 65.3218 6.33108 65.4744 5.03809L56.5461 6.63531V7.39589L57.4618 7.54801C58.6828 7.77618 59.0643 8.46071 59.2933 10.0579C59.5222 13.2524 59.4459 30.0612 59.2933 32.8754C61.6589 33.4078 64.1772 33.7881 66.6954 33.7881C73.716 33.7881 77.9131 29.4528 77.9131 22.6075C77.9894 17.1313 74.5554 13.1763 70.0531 13.1763ZM67.0006 32.2669C66.4665 32.2669 65.7797 32.2669 65.3981 32.1148C65.2455 30.2894 65.1692 22.5315 65.2455 15.6862C66.0086 15.4581 66.5428 15.3059 67.2296 15.3059C70.1294 15.3059 71.7319 18.7286 71.7319 22.9118C71.7319 28.2358 69.7478 32.2669 67.0006 32.2669Z" fill="#454545" fill-opacity="0.6"/>
<path fill-rule="evenodd" clip-rule="evenodd" d="M23.2747 5.57036H0V6.78729L1.29728 6.93941C3.05242 7.16758 3.66291 8.2324 3.96815 10.7423C4.3497 15.4579 4.19708 24.0525 3.96815 28.1596C3.73922 30.6696 3.05242 31.8104 1.29728 31.9626L0 32.1907V33.2555H14.9569V32.1907L13.3543 31.9626C11.5992 31.8104 10.9887 30.6696 10.6835 28.1596C10.5309 26.4103 10.4545 23.6722 10.4545 20.2496L13.6596 20.4017C15.6437 20.4017 16.5594 21.9989 16.9409 24.2046H18.1619V14.7734H16.9409C16.5594 16.9791 15.6437 18.5763 13.6596 18.5763L10.4545 18.7284C10.4545 14.241 10.6072 10.0578 10.6835 7.54788H15.3384C18.925 7.54788 20.7565 9.75356 22.0537 13.7086L23.351 13.3283L23.2747 5.57036Z" fill="#454545" fill-opacity="0.6"/>
<path fill-rule="evenodd" clip-rule="evenodd" d="M30.7532 12.9482C37.3922 12.9482 40.6735 17.4356 40.6735 23.3682C40.6735 28.9965 37.0106 33.7881 30.3716 33.7881C23.7326 33.7881 20.4512 29.3007 20.4512 23.3682C20.4512 17.6638 24.1904 12.9482 30.7532 12.9482ZM30.3716 14.2412C27.4718 14.2412 26.7087 18.1962 26.7087 23.2921C26.7087 28.3119 28.006 32.343 30.6768 32.343C33.7293 32.343 34.4924 28.388 34.4924 23.2921C34.4924 18.3483 33.1951 14.2412 30.3716 14.2412Z" fill="#454545" fill-opacity="0.6"/>
<path fill-rule="evenodd" clip-rule="evenodd" d="M79.6682 23.4443C79.6682 18.0441 83.1022 12.8722 89.8175 12.8722C95.3882 12.8722 97.9827 16.9793 97.9827 22.3795H85.6967C85.5441 27.2472 87.9098 30.8219 92.7173 30.8219C94.854 30.8219 95.9223 30.2895 97.2196 29.3768L97.7538 30.0613C96.4565 31.8867 93.5567 33.7121 89.8175 33.7121C83.9416 33.7882 79.6682 29.5289 79.6682 23.4443ZM85.7731 21.0104L91.9542 20.8583C91.9542 18.1963 91.5727 14.2412 89.2833 14.2412C87.0703 14.2412 85.9257 17.9681 85.7731 21.0104Z" fill="#454545" fill-opacity="0.6"/>
<path fill-rule="evenodd" clip-rule="evenodd" d="M113.779 14.013C112.176 13.3285 110.116 12.9482 107.674 12.9482C102.79 12.9482 99.7379 15.8384 99.7379 19.261C99.7379 22.6836 101.951 24.1287 105.156 25.1936C108.437 26.4105 109.353 27.3232 109.353 28.8444C109.353 30.4416 108.132 31.8867 106.072 31.8867C103.553 31.8867 101.722 30.4416 100.272 26.4866L99.3563 26.7147L99.5089 32.4951C101.111 33.1797 104.011 33.7121 106.53 33.7121C111.719 33.7121 115 31.05 115 27.019C115 24.2809 113.55 22.6836 110.116 21.3906C106.453 19.9455 105.08 19.0328 105.08 17.2835C105.08 15.5342 106.301 14.3933 107.827 14.3933C110.192 14.3933 111.795 15.8384 113.016 19.4131L113.932 19.185L113.779 14.013Z" fill="#454545" fill-opacity="0.6"/>
<path fill-rule="evenodd" clip-rule="evenodd" d="M57.8434 13.4807C55.6304 12.1877 51.6622 12.7962 49.5255 17.5878L49.6782 12.9483L40.8261 14.6976V15.4582L41.7419 15.6103C42.9628 15.7624 43.497 16.3709 43.5733 18.1202C43.8023 21.3147 43.7259 26.7909 43.5733 29.605C43.4207 31.2022 42.8865 31.9628 41.7419 32.1149L40.8261 32.2671V33.3319H53.1121V32.2671L51.5096 32.1149C50.2123 31.9628 49.7545 31.2022 49.6782 29.605C49.4492 27.0951 49.4492 22.0753 49.5255 18.9569C50.2123 18.0442 53.1121 17.2075 55.7067 18.9569L57.8434 13.4807Z" fill="#454545" fill-opacity="0.6"/>
</svg>
