<svg width="166" height="41" viewBox="0 0 166 41" fill="none" xmlns="http://www.w3.org/2000/svg">
<g clip-path="url(#clip0_56_289)">
<path d="M27.1363 28.4402V10.3599C27.1363 9.41927 27.3447 8.71383 27.7875 8.24353C28.2043 7.77323 28.7773 7.53809 29.4546 7.53809C30.1578 7.53809 30.7309 7.77323 31.1476 8.24353C31.5905 8.71383 31.7988 9.41927 31.7988 10.3599V28.4402C31.7988 29.3808 31.5905 30.1123 31.1476 30.5826C30.7048 31.0529 30.1578 31.2881 29.4546 31.2881C28.7773 31.2881 28.2303 31.0529 27.8136 30.5826C27.3708 30.0862 27.1363 29.3808 27.1363 28.4402Z" fill="#454545" fill-opacity="0.6"/>
<path d="M153.18 31.262C146.668 31.262 141.355 25.9319 141.355 19.4C141.355 12.8681 146.668 7.53809 153.18 7.53809C159.692 7.53809 165.006 12.8681 165.006 19.4C165.006 25.958 159.718 31.262 153.18 31.262ZM153.18 12.3456C149.299 12.3456 146.148 15.507 146.148 19.4C146.148 23.293 149.299 26.4545 153.18 26.4545C157.061 26.4545 160.213 23.293 160.213 19.4C160.213 15.5331 157.061 12.3456 153.18 12.3456Z" fill="#454545" fill-opacity="0.6"/>
<path d="M100.121 31.262C93.6096 31.262 88.2959 25.9319 88.2959 19.4C88.2959 12.8681 93.6096 7.53809 100.121 7.53809C106.633 7.53809 111.947 12.8681 111.947 19.4C111.947 25.958 106.633 31.262 100.121 31.262ZM100.121 12.3456C96.2404 12.3456 93.0886 15.507 93.0886 19.4C93.0886 23.293 96.2404 26.4545 100.121 26.4545C104.003 26.4545 107.154 23.293 107.154 19.4C107.154 15.5331 104.003 12.3456 100.121 12.3456Z" fill="#454545" fill-opacity="0.6"/>
<path d="M137.578 19.4C137.578 16.7873 136.718 14.3574 135.286 12.3978C133.202 9.54991 129.868 7.66872 126.091 7.53809C125.961 7.53809 125.856 7.53809 125.726 7.53809H119.787C118.771 7.53809 118.042 7.77323 117.599 8.24353C117.156 8.71383 116.922 9.4454 116.922 10.4905V28.3357C116.922 29.3808 117.156 30.1123 117.599 30.5826C118.042 31.0529 118.797 31.2881 119.787 31.2881H125.726C125.856 31.2881 125.961 31.2881 126.091 31.2881C129.868 31.1836 133.176 29.3024 135.286 26.4284C136.718 24.4427 137.578 22.0128 137.578 19.4ZM126.586 26.4022C126.013 26.4283 125.388 26.4545 124.736 26.4545H121.637V12.3456H124.736C125.388 12.3456 126.013 12.3456 126.586 12.3978C128.643 12.633 130.415 13.7826 131.535 15.4025C132.316 16.526 132.785 17.9107 132.785 19.4C132.785 20.8893 132.316 22.2479 131.535 23.3714C130.415 25.0436 128.643 26.1671 126.586 26.4022Z" fill="#454545" fill-opacity="0.6"/>
<path d="M81.6016 7.64253C80.742 7.38126 79.8043 7.72092 79.3094 8.47862L72.1724 19.3738L65.0354 8.47862C64.5405 7.72092 63.6028 7.38126 62.7432 7.64253C61.8837 7.90381 61.2846 8.73989 61.2846 9.65436V29.0149C61.2846 30.1645 62.1962 31.1313 63.3423 31.1313C64.4624 31.1313 65.4001 30.1907 65.4001 29.0149V16.552L70.4533 24.2858C70.4533 24.2858 70.4533 24.2858 70.4533 24.3119C70.4533 24.3119 70.4533 24.3381 70.4793 24.3381C70.5054 24.3903 70.5314 24.4426 70.5835 24.4687C70.6096 24.4948 70.6096 24.4948 70.6356 24.521C70.6617 24.5471 70.6877 24.5994 70.7138 24.6255C70.7398 24.6516 70.7659 24.6777 70.7919 24.7039C70.8179 24.73 70.844 24.73 70.844 24.7561C70.8961 24.7822 70.9221 24.8084 70.9742 24.8606L71.0003 24.8868C71.0524 24.9129 71.1045 24.939 71.1305 24.9651C71.1566 24.9651 71.1566 24.9913 71.1566 24.9913C71.1826 25.0174 71.2347 25.0174 71.2608 25.0435C71.4691 25.148 71.6775 25.2003 71.9119 25.2264C71.964 25.2264 71.9901 25.2264 72.0422 25.2264C72.0682 25.2264 72.0943 25.2264 72.1203 25.2264C72.1464 25.2264 72.1724 25.2264 72.1985 25.2264C72.2506 25.2264 72.2766 25.2264 72.3287 25.2264C72.5371 25.2003 72.7715 25.148 72.9799 25.0435C73.0059 25.0174 73.058 25.0174 73.0841 24.9913L73.1101 24.9651C73.1622 24.939 73.2143 24.9129 73.2404 24.8868C73.2664 24.8868 73.2664 24.8606 73.2664 24.8606C73.3185 24.8345 73.3446 24.8084 73.3967 24.7561C73.4227 24.73 73.4488 24.73 73.4488 24.7039C73.4748 24.6777 73.5008 24.6516 73.5269 24.6255C73.5529 24.5994 73.579 24.5732 73.605 24.521C73.6311 24.4948 73.6311 24.4948 73.6571 24.4687C73.6832 24.4165 73.7353 24.3903 73.7613 24.3381L73.7874 24.3119C73.7874 24.3119 73.7874 24.3119 73.7874 24.2858L78.8406 16.552V29.0149C78.8406 30.1645 79.7522 31.1313 80.8983 31.1313C82.0184 31.1313 82.9561 30.1907 82.9561 29.0149V9.65436C83.0603 8.73989 82.4612 7.90381 81.6016 7.64253Z" fill="#454545" fill-opacity="0.6"/>
<path d="M54.3038 30.5565H38.9619C38.1544 30.5565 37.2688 30.0601 36.9302 29.2762C36.5915 28.4924 36.5394 27.4212 37.2427 26.559L49.7716 11.9537H39.4047C38.2846 11.9537 37.3469 10.9608 37.3469 9.75893C37.3469 8.55706 38.2586 7.79936 39.4047 7.79936H53.3661C54.1736 7.79936 55.0071 7.93 55.7365 8.73996C56.4137 9.47153 56.3616 11.0653 55.6323 12.0059L43.5202 26.1671H54.3038C55.4499 26.1671 56.2574 27.1599 56.2574 28.3618C56.2574 29.5637 55.4499 30.5565 54.3038 30.5565Z" fill="#454545" fill-opacity="0.6"/>
<path d="M11.8724 31.262C8.46021 31.262 5.3866 29.9033 3.17256 27.4473C1.24504 25.3049 0.125 22.4569 0.125 19.6352C0.125 10.8302 7.41831 7.53809 12.0287 7.53809C16.561 7.53809 19.869 9.75893 20.0253 9.86344C21.0412 10.5689 21.3277 11.9537 20.6244 12.9988C19.9472 14.0439 18.5667 14.3051 17.5508 13.6258C17.4987 13.5997 15.1284 12.0582 12.0287 12.0582C9.13745 12.0582 5.15217 13.9655 5.15217 19.6352C5.15217 22.8489 7.54855 26.6635 11.9245 26.6635C14.399 26.6635 16.1182 26.0103 17.134 25.3571V22.0128H13.7479C12.5236 22.0128 11.5338 20.9938 11.5338 19.7658C11.5338 18.5117 12.5236 17.5188 13.7479 17.5188H19.4002C20.6244 17.5188 21.6142 18.5378 21.6142 19.7658V26.4806C21.6142 27.0815 21.3798 27.6825 20.937 28.1005C19.4523 29.5637 16.1703 31.262 11.8724 31.262Z" fill="#454545" fill-opacity="0.6"/>
</g>
<defs>
<clipPath id="clip0_56_289">
<rect width="165" height="40" fill="white" transform="translate(0.125 0.0380859)"/>
</clipPath>
</defs>
</svg>
