<svg width="24" height="25" viewBox="0 0 24 25" fill="none" xmlns="http://www.w3.org/2000/svg">
<path d="M21.0071 20.6572C21.0071 20.8561 20.9281 21.0469 20.7874 21.1875C20.6468 21.3282 20.456 21.4072 20.2571 21.4072H3.75708C3.55817 21.4072 3.3674 21.3282 3.22675 21.1875C3.0861 21.0469 3.00708 20.8561 3.00708 20.6572C3.00708 20.4583 3.0861 20.2675 3.22675 20.1269C3.3674 19.9862 3.55817 19.9072 3.75708 19.9072H11.2571V13.1028C9.94339 12.9132 8.75028 12.233 7.91786 11.1992C7.08544 10.1654 6.67551 8.85459 6.77056 7.5307C6.86561 6.2068 7.45859 4.96804 8.43016 4.06373C9.40173 3.15941 10.6798 2.65666 12.0071 2.65666C13.3344 2.65666 14.6124 3.15941 15.584 4.06373C16.5556 4.96804 17.1485 6.2068 17.2436 7.5307C17.3387 8.85459 16.9287 10.1654 16.0963 11.1992C15.2639 12.233 14.0708 12.9132 12.7571 13.1028V19.9072H20.2571C20.456 19.9072 20.6468 19.9862 20.7874 20.1269C20.9281 20.2675 21.0071 20.4583 21.0071 20.6572Z" fill="white"/>
</svg>
