<svg width="89" height="89" viewBox="0 0 89 89" fill="none" xmlns="http://www.w3.org/2000/svg">
<path d="M0.599854 44.2C0.599854 19.8442 20.3441 0.0999985 44.6999 0.0999985C69.0556 0.0999985 88.7999 19.8442 88.7999 44.2C88.7999 68.5557 69.0556 88.3 44.6999 88.3C20.3441 88.3 0.599854 68.5557 0.599854 44.2Z" fill="white"/>
<mask id="mask0_2_9881" style="mask-type:alpha" maskUnits="userSpaceOnUse" x="18" y="17" width="54" height="54">
<rect x="18.1999" y="17.7" width="53" height="53" fill="#D9D9D9"/>
</mask>
<g mask="url(#mask0_2_9881)">
<path d="M35.8665 41.9917C36.4922 41.9917 37.0167 41.78 37.44 41.3568C37.8632 40.9335 38.0749 40.409 38.0749 39.7833C38.0749 39.1576 37.8632 38.6332 37.44 38.2099C37.0167 37.7866 36.4922 37.575 35.8665 37.575C35.2408 37.575 34.7163 37.7866 34.2931 38.2099C33.8698 38.6332 33.6582 39.1576 33.6582 39.7833C33.6582 40.409 33.8698 40.9335 34.2931 41.3568C34.7163 41.78 35.2408 41.9917 35.8665 41.9917ZM44.6999 41.9917C45.3255 41.9917 45.85 41.78 46.2733 41.3568C46.6966 40.9335 46.9082 40.409 46.9082 39.7833C46.9082 39.1576 46.6966 38.6332 46.2733 38.2099C45.85 37.7866 45.3255 37.575 44.6999 37.575C44.0742 37.575 43.5497 37.7866 43.1264 38.2099C42.7031 38.6332 42.4915 39.1576 42.4915 39.7833C42.4915 40.409 42.7031 40.9335 43.1264 41.3568C43.5497 41.78 44.0742 41.9917 44.6999 41.9917ZM53.5332 41.9917C54.1589 41.9917 54.6834 41.78 55.1066 41.3568C55.5299 40.9335 55.7415 40.409 55.7415 39.7833C55.7415 39.1576 55.5299 38.6332 55.1066 38.2099C54.6834 37.7866 54.1589 37.575 53.5332 37.575C52.9075 37.575 52.383 37.7866 51.9597 38.2099C51.5365 38.6332 51.3249 39.1576 51.3249 39.7833C51.3249 40.409 51.5365 40.9335 51.9597 41.3568C52.383 41.78 52.9075 41.9917 53.5332 41.9917ZM22.6165 66.2833V26.5333C22.6165 25.3187 23.049 24.279 23.9139 23.4141C24.7788 22.5491 25.8186 22.1167 27.0332 22.1167H62.3665C63.5811 22.1167 64.6209 22.5491 65.4858 23.4141C66.3507 24.279 66.7832 25.3187 66.7832 26.5333V53.0333C66.7832 54.2479 66.3507 55.2877 65.4858 56.1526C64.6209 57.0175 63.5811 57.45 62.3665 57.45H31.4499L22.6165 66.2833ZM29.5728 53.0333H62.3665V26.5333H27.0332V55.5177L29.5728 53.0333Z" fill="#1C2B28"/>
</g>
</svg>
