<svg width="89" height="89" viewBox="0 0 89 89" fill="none" xmlns="http://www.w3.org/2000/svg">
<path d="M0.199951 44.1C0.199951 19.7442 19.9442 0 44.2999 0C68.6557 0 88.3999 19.7442 88.3999 44.1C88.3999 68.4557 68.6557 88.2 44.2999 88.2C19.9442 88.2 0.199951 68.4557 0.199951 44.1Z" fill="#1C2B28"/>
<g clip-path="url(#clip0_2_9872)">
<path d="M44.2441 60.6603H40.9875V51.551C40.9875 51.3313 40.9002 51.1207 40.7449 50.9654C40.5896 50.8101 40.379 50.7228 40.1593 50.7228H26.9093C26.6897 50.7228 26.4791 50.8101 26.3238 50.9654C26.1685 51.1207 26.0812 51.3313 26.0812 51.551V60.6603H22.8246C22.3965 60.6535 21.9817 60.8093 21.6639 61.0964C21.3462 61.3834 21.1491 61.7802 21.1125 62.2069C21.0974 62.4334 21.1291 62.6606 21.2056 62.8744C21.2821 63.0882 21.4017 63.284 21.557 63.4496C21.7123 63.6152 21.9 63.7471 22.1085 63.8371C22.3169 63.9271 22.5417 63.9733 22.7687 63.9728H44.3C44.527 63.9733 44.7517 63.9271 44.9602 63.8371C45.1686 63.7471 45.3564 63.6152 45.5117 63.4496C45.667 63.284 45.7866 63.0882 45.8631 62.8744C45.9396 62.6606 45.9713 62.4334 45.9562 62.2069C45.9196 61.7802 45.7225 61.3834 45.4047 61.0964C45.087 60.8093 44.6722 60.6535 44.2441 60.6603Z" fill="white"/>
<path d="M67.4316 34.1603H40.354L35.8448 25.1379C35.7071 24.8627 35.4955 24.6314 35.2337 24.4697C34.9718 24.3081 34.6702 24.2226 34.3625 24.2228H27.7375C27.2982 24.2228 26.8769 24.3973 26.5663 24.7079C26.2557 25.0185 26.0812 25.4398 26.0812 25.8791V34.1603H22.8246C22.3965 34.1535 21.9817 34.3093 21.6639 34.5964C21.3462 34.8834 21.1491 35.2802 21.1125 35.7069C21.0974 35.9334 21.1291 36.1606 21.2056 36.3744C21.2821 36.5882 21.4017 36.784 21.557 36.9496C21.7123 37.1152 21.9 37.2471 22.1085 37.3371C22.3169 37.4271 22.5417 37.4733 22.7687 37.4728H26.0812V46.5822C26.0812 46.8018 26.1685 47.0125 26.3238 47.1678C26.4791 47.3231 26.6897 47.4103 26.9093 47.4103H40.1593C40.379 47.4103 40.5896 47.3231 40.7449 47.1678C40.9002 47.0125 40.9875 46.8018 40.9875 46.5822V37.4728H60.8625V55.6916H57.55V54.0912C57.5552 53.6639 57.3988 53.2504 57.1119 52.9337C56.8251 52.6169 56.4292 52.4203 56.0034 52.3832C55.7769 52.3682 55.5497 52.3999 55.3359 52.4764C55.1221 52.5528 54.9263 52.6724 54.7607 52.8278C54.5951 52.9831 54.4632 53.1708 54.3732 53.3792C54.2832 53.5877 54.237 53.8124 54.2375 54.0395V55.6957C54.2375 56.5743 54.5865 57.4168 55.2077 58.038C55.8289 58.6592 56.6714 59.0082 57.55 59.0082H60.8625C61.741 59.0082 62.5835 58.6592 63.2048 58.038C63.826 57.4168 64.175 56.5743 64.175 55.6957V37.4728H67.4875C67.7145 37.4733 67.9392 37.4271 68.1477 37.3371C68.3561 37.2471 68.5439 37.1152 68.6992 36.9496C68.8545 36.784 68.9741 36.5882 69.0506 36.3744C69.1271 36.1606 69.1588 35.9334 69.1437 35.7069C69.1071 35.2802 68.91 34.8834 68.5923 34.5964C68.2745 34.3093 67.8597 34.1535 67.4316 34.1603ZM29.3937 34.1603V27.5353H33.3397L36.6522 34.1603H29.3937Z" fill="white"/>
</g>
<defs>
<clipPath id="clip0_2_9872">
<rect width="53" height="53" fill="white" transform="translate(17.8 17.6)"/>
</clipPath>
</defs>
</svg>
