<svg width="54" height="58" viewBox="0 0 54 58" fill="none" xmlns="http://www.w3.org/2000/svg">
<path d="M53.0135 10.217C49.4097 10.1569 45.3254 9.43617 40.8206 7.93459C35.5351 6.19276 30.73 3.73017 26.8259 0.907196C22.8617 3.79023 18.1167 6.19276 12.8312 7.93459C8.32642 9.43617 4.30218 10.1569 0.638325 10.217C0.157819 13.3403 -0.082434 15.7428 0.0376924 19.0463C0.698388 43.0115 17.0356 55.6849 26.8259 57.9072C36.6162 55.6248 52.9534 43.0115 53.6141 19.0463C53.7342 15.6828 53.494 13.2802 53.0135 10.217ZM24.1522 38.6063L15.3059 29.7599L19.5704 25.4954L24.2123 30.0773L34.0814 20.2081L38.3459 24.4726L24.1522 38.6063Z" fill="url(#paint0_linear_2_9886)"/>
<defs>
<linearGradient id="paint0_linear_2_9886" x1="-0.17231" y1="-6.2706" x2="55.0373" y2="54.234" gradientUnits="userSpaceOnUse">
<stop stop-color="#3C676C"/>
<stop offset="1" stop-color="white"/>
</linearGradient>
</defs>
</svg>
