<svg width="89" height="89" viewBox="0 0 89 89" fill="none" xmlns="http://www.w3.org/2000/svg">
<path d="M0.399902 44.1C0.399902 19.7442 20.1441 0 44.4999 0C68.8557 0 88.5999 19.7442 88.5999 44.1C88.5999 68.4557 68.8557 88.2 44.4999 88.2C20.1441 88.2 0.399902 68.4557 0.399902 44.1Z" fill="#1C2B28"/>
<path d="M64.3087 31.2951L46.0899 21.3266C45.6031 21.0576 45.0561 20.9165 44.4999 20.9165C43.9438 20.9165 43.3967 21.0576 42.9099 21.3266L24.6912 31.2993C24.1709 31.5839 23.7365 32.0031 23.4336 32.5129C23.1306 33.0228 22.97 33.6046 22.9687 34.1977V53.9982C22.97 54.5912 23.1306 55.1731 23.4336 55.6829C23.7365 56.1928 24.1709 56.6119 24.6912 56.8966L42.9099 66.8693C43.3967 67.1383 43.9438 67.2794 44.4999 67.2794C45.0561 67.2794 45.6031 67.1383 46.0899 66.8693L64.3087 56.8966C64.8289 56.6119 65.2633 56.1928 65.5663 55.6829C65.8693 55.1731 66.0298 54.5912 66.0312 53.9982V34.1998C66.0309 33.6056 65.8709 33.0225 65.5678 32.5115C65.2648 32.0004 64.8299 31.5803 64.3087 31.2951ZM44.4999 42.4438L27.8649 33.3344L44.4999 24.225L61.1349 33.3344L44.4999 42.4438ZM46.1562 63.0723V45.307L62.7187 36.2432V53.9982L46.1562 63.0723Z" fill="white"/>
</svg>
