<svg width="275" height="41" viewBox="0 0 275 41" fill="none" xmlns="http://www.w3.org/2000/svg">
<g clip-path="url(#clip0_55_283)">
<path fill-rule="evenodd" clip-rule="evenodd" d="M5.15439 14.6817C5.69591 13.2151 6.4405 12.0644 7.38817 11.2182C7.51226 11.1618 7.64764 11.1393 7.78303 11.1167C7.91841 11.1054 8.24557 11.0941 8.77581 11.0941C9.06914 11.0941 9.31734 11.1167 9.54297 11.1505C9.7686 11.1957 9.99424 11.2746 10.2312 11.3875C10.4681 11.5116 10.7501 11.6695 11.066 11.8838L7.03843 15.0878L7.9861 15.8437V26.5162C6.95946 26.0198 6.10205 25.2188 5.53797 24.226C4.74825 22.8609 4.35339 21.022 4.35339 18.7318C4.34211 17.4908 4.61287 16.137 5.15439 14.6817ZM4.78209 10.5865C5.01901 10.5865 5.32362 10.6316 5.69591 10.7106C6.06821 10.7895 6.40666 10.8685 6.72255 10.9475C4.51133 11.929 2.79652 13.5423 1.58938 15.8099C0.540178 17.8067 -0.00134334 20.0292 0.00993835 22.2968C0.00993835 25.1962 1.01401 27.6782 3.03343 29.7427C5.05286 31.8073 7.51226 32.8452 10.4004 32.8452C13.187 32.8452 15.5561 31.7734 17.474 29.6412C19.3919 27.509 20.3621 24.9932 20.3621 22.0938C20.1026 22.703 19.798 23.2107 19.4709 23.6168C19.0534 24.1132 18.5796 24.5757 18.0719 24.9819C17.6771 25.3203 17.3161 25.5798 17.0002 25.749C16.6843 25.9183 16.2781 26.11 15.7705 26.3244V12.0869C16.4022 11.8274 16.9099 11.5567 17.2935 11.2746C17.6771 11.0039 18.0945 10.5977 18.5458 10.0675C19.7078 8.78139 20.3508 7.33733 20.4862 5.7579C19.6401 6.3107 18.8842 6.71684 18.2073 6.9876C17.5304 7.24708 16.7745 7.42758 15.9397 7.50656C15.8043 7.50656 15.6238 7.51784 15.3869 7.5404C14.4618 7.5404 13.0854 7.17939 11.2578 6.45736C9.43015 5.73533 7.9861 5.37432 6.92562 5.37432C4.8385 5.37432 3.16881 6.35583 1.90526 8.29627C0.777094 10.0337 0.201727 12.0982 0.201727 14.5012C0.359671 13.7679 0.743248 13.0684 1.35246 12.4028C1.80373 11.9064 2.32269 11.4777 2.89805 11.1393C3.46214 10.7782 4.09391 10.5865 4.78209 10.5865ZM24.0287 32.6421L27.4696 28.8064L25.7322 26.99V16.7124L26.725 16.0468L29.489 18.1452V31.7058C29.489 32.4729 29.4439 33.1273 29.3536 33.6688C29.2747 34.1764 29.0603 34.6616 28.7444 35.0677L27.7742 36.2748C27.3342 36.8164 26.7927 37.2451 26.1383 37.561C27.4583 37.4256 28.5413 37.1322 29.3762 36.6697C30.2223 36.2071 31.091 35.4738 31.9823 34.481C32.6366 33.7365 33.133 33.0032 33.4602 32.2698C33.7986 31.514 34.013 30.713 34.1145 29.9007V14.7043L32.9299 14.7832L29.2182 12.29L26.5332 14.5012L25.6645 14.0274V6.51377L24.8748 4.81024L21.3549 8.25115V27.7346L20.2831 28.9982L24.0287 32.6421ZM35.8068 28.3325L42.1696 32.3601L48.2166 25.9972L44.9336 28.3325L40.9061 25.4444V22.7594L48.1038 17.378L43.5234 11.2069L36.2129 16.3063V27.4526L35.8068 28.3325ZM56.9599 8.45422V15.8437C56.4297 15.9001 56.001 15.9904 55.6738 16.1258C55.3466 16.2611 54.9969 16.4868 54.6246 16.8027C53.5641 17.6262 53.0452 18.6754 53.0452 19.9615C53.0339 20.3677 53.0903 20.7625 53.2031 21.1461C53.5754 20.8302 53.9364 20.6159 54.2862 20.5143C54.6472 20.4128 55.0872 20.3564 55.6174 20.3564C55.8769 20.3564 56.0912 20.3902 56.2492 20.4354C56.4071 20.4918 56.644 20.5933 56.9599 20.7512V28.0166L62.4203 33.5108L67.4406 28.4115L73.4876 33.5108L82.2986 24.9706V10.3495L76.8383 6.16404L72.8107 9.79674L67.3165 6.16404L62.4203 10.2706V7.86757C62.4203 7.07785 61.8562 6.1866 60.7167 5.18253C60.3783 4.94562 60.0511 4.69742 59.7465 4.44922C59.4419 4.20103 59.2614 3.84001 59.2163 3.37746C59.1711 3.00517 59.1486 2.63287 59.1373 2.24929C59.1373 1.35804 59.4419 0.636015 60.0511 0.117058C59.8255 0.071931 59.5998 0.0493676 59.3742 0.0380859C58.1896 0.0380859 57.1404 0.53448 56.2379 1.51599C55.3241 2.50877 54.8728 3.6031 54.8728 4.82152C54.8728 5.00202 54.8954 5.2615 54.9518 5.57739C55.1774 6.8635 55.843 7.82244 56.9599 8.45422ZM83.3591 28.5356L88.2553 31.9765L91.8091 28.6146L96.0397 31.5817L99.6724 27.6669H98.4089L96.7956 25.9972V14.4222L95.9269 14.5802L91.8204 11.1393L84.036 16.5093V27.8474L83.3591 28.5356ZM106.938 11.9064C106.441 11.6695 105.968 11.3649 105.539 11.0152L99.0971 15.5617V23.2332L99.695 23.707H103.531L98.5555 32.3601C99.3227 31.7058 99.9093 31.2658 100.338 31.0514C100.936 30.7581 101.602 30.6114 102.278 30.6114C103.125 30.6114 103.802 30.713 104.332 30.9048C104.862 31.0965 105.404 31.4463 105.956 31.954L112.274 26.9787V19.1944L111.8 18.7205H107.57V18.3257L111.326 11.7259C110.932 11.9628 110.616 12.0982 110.379 12.1433C109.995 12.1885 109.612 12.211 109.228 12.1997H108.393C107.886 12.211 107.389 12.1095 106.938 11.9064ZM116.956 32.0893L120.431 28.2197L118.693 26.4034V16.1258L119.641 15.4489L122.45 17.5811V31.0965C122.461 31.7509 122.416 32.4052 122.315 33.0596C122.225 33.5672 122.01 34.0411 121.66 34.4585C121.446 34.718 121.164 35.1015 120.792 35.6092C120.318 36.162 119.743 36.6133 119.088 36.9517C120.295 36.8502 121.378 36.5569 122.315 36.0718C123.251 35.5867 124.131 34.8646 124.943 33.917C125.553 33.2062 126.026 32.4616 126.365 31.6832C126.703 30.9048 126.929 30.1038 127.042 29.2915V14.1063L125.891 14.2304L122.134 11.7372L119.449 13.9146L118.581 13.4407V5.96097L117.825 4.22359L114.271 7.6645V27.1931L113.199 28.4115L116.956 32.0893ZM135.966 8.73626L132.412 5.84815L129.524 9.00702L132.525 11.7372L135.966 8.73626ZM130.392 17.6601V28.4115L129.637 29.5622H130.979L134.059 32.1683L137.297 29.2012L141.449 32.5632L145.081 28.5356L143.931 27.0803V17.0057L144.878 16.5319L146.977 18.8221V28.6935L150.654 31.8975L154.208 27.87H152.55L151.602 26.3244V15.573L152.076 14.5802L151.128 14.7832L147.496 11.8951L143.942 15.573L139.79 12.29L136.349 16.1258H137.692L138.842 17.4683V27.3397L136.552 28.1295L135.086 26.9787V15.9114L135.559 15.2345L131.453 12.1885L128.091 15.7422L129.242 16.1032L130.392 17.6601ZM201.456 28.0618L200.316 26.5952V16.5206L201.264 16.0468L203.362 18.337V28.2536L207.04 31.4124L210.594 27.3849H208.936L207.988 25.8393V15.0878L208.462 14.1402L207.514 14.2981L203.881 11.41L200.328 15.0878L196.176 11.8049L192.735 15.6406H194.078L195.228 16.9832V26.8998L193.807 28.7951L198.195 31.6832L201.456 28.0618ZM154.975 28.1407C155.506 28.1407 155.979 28.2084 156.419 28.3438C156.859 28.4792 157.277 28.7048 157.705 29.032C158.123 29.3592 158.439 29.6751 158.631 29.9797C158.822 30.2843 158.992 30.7017 159.127 31.2206L157.074 33.8718L154.896 36.7938C155.449 36.4779 155.923 36.2861 156.318 36.2184C156.713 36.1507 157.288 36.1169 158.055 36.1169C158.946 36.1959 159.714 36.4102 160.345 36.7487C160.977 37.0871 161.553 37.6061 162.083 38.2943C163.346 37.8204 164.813 36.7599 166.494 35.1354C168.175 33.4995 169.01 32.157 169.01 31.1078C169.01 30.9273 168.818 30.352 168.434 29.4156C168.051 28.4566 167.859 27.4413 167.859 26.4034V14.1063L162.365 10.6654L155.449 15.5617V27.2608L154.975 28.1407ZM168.615 14.6253H170.905V28.3438L170.352 29.4156H171.695L174.583 31.6268L178.295 27.3962H176.67L175.598 26.2454V14.8961L177.934 12.0079H175.598V4.4605L170.894 8.84908V11.85L168.615 14.6253ZM178.61 28.1407L183.507 31.6155L192.047 25.6475V14.0274L191.178 14.2304L187.06 10.7557L179.276 16.1258V27.4751L178.61 28.1407ZM218.728 8.53319V12.211C218.04 12.211 217.465 12.2787 216.991 12.4254C216.517 12.572 216.066 12.8541 215.626 13.2715C215.186 13.6889 214.938 14.1853 214.859 14.7381C214.78 15.2909 214.734 16.0129 214.734 16.9155C214.734 17.2878 214.723 17.536 214.689 17.6714C215.265 16.7463 216.077 16.3627 217.104 16.5206C217.792 16.6222 218.333 16.9155 218.728 17.3893V23.5153C217.521 24.147 216.461 24.9819 215.569 26.0085C214.565 27.1931 213.888 28.4115 213.55 29.6863C214.001 29.3366 214.475 29.0207 214.971 28.7612C215.366 28.5582 215.919 28.3664 216.63 28.152C216.889 28.0731 217.194 27.9828 217.544 27.8925C217.882 27.8023 218.277 27.7572 218.728 27.7572V39.5691L223.906 35.3385L225.644 36.602V29.8781L227.855 30.634L235.324 25.4557V8.05936L230.54 4.22359L225.644 8.33012V6.16404L224.696 5.37432V8.84908L223.906 9.40188V5.76918L219.879 2.678L215.095 7.38246C215.49 7.14554 215.896 7.02144 216.314 7.02144C216.652 7.02144 216.991 7.07785 217.307 7.17939C218.017 7.45015 218.491 7.90142 218.728 8.53319ZM236 28.5356L240.897 31.9765L249.471 26.0085V14.4222L248.602 14.5802L244.45 11.1393L236.666 16.5093V27.8474L236 28.5356ZM258.688 11.7372C258.18 11.489 257.684 11.1957 257.221 10.8685L250.813 15.3699V23.0414L251.366 23.5153H255.202L250.227 32.1683C250.779 31.6945 251.242 31.3447 251.614 31.0965C252.302 30.6453 253.092 30.4196 253.983 30.4196C254.807 30.4196 255.473 30.5212 256.003 30.713C256.533 30.916 257.075 31.2545 257.627 31.7622L263.956 26.7869V19.0026L263.483 18.5288H259.252V18.1339L263.009 11.5341C262.614 11.771 262.298 11.9064 262.061 11.9515C261.824 11.9967 261.441 12.0079 260.91 12.0079H260.087C259.545 12.0079 259.083 11.9177 258.688 11.7372ZM264.058 14.8171H266.348V28.5356L265.795 29.6074H267.138L269.981 31.8186L273.738 27.5879H272.113L271.041 26.4372V15.0991L273.332 12.211H271.041V4.66357L266.359 9.05215V12.0531L264.058 14.8171ZM88.7292 15.1781L91.8091 17.4683V26.6741L90.8163 27.7459L88.7179 25.9295L88.7292 15.1781ZM165.253 31.3786C165.885 31.8299 166.201 32.3939 166.201 33.0821C166.201 33.398 166.167 33.6349 166.122 33.7929C165.964 34.0298 165.84 34.1877 165.761 34.2667C165.546 34.481 165.275 34.6164 164.971 34.6616C164.632 34.718 164.181 34.5487 163.628 34.1652C163.076 33.7816 162.241 33.5898 161.135 33.5898C160.424 33.5898 159.781 33.6575 159.195 33.7929C158.619 33.9282 158.01 34.1539 157.378 34.4698L163.155 27.351V28.2648C163.155 28.7951 163.2 29.2238 163.29 29.5735C163.38 29.912 163.583 30.2504 163.899 30.5663C164.35 30.8371 164.802 31.1191 165.253 31.3786ZM160.154 14.7043L163.155 16.9155V25.8506L162.286 26.7982L160.154 24.666V14.7043ZM40.9061 21.6199V15.8437L43.7942 19.4764L40.9061 21.6199ZM108.619 15.0991L105.934 19.8826H103.914V14.7043C104.704 15.2007 105.561 15.4601 106.487 15.4601C107.22 15.4489 107.931 15.336 108.619 15.0991ZM183.981 14.7832L187.06 17.1185V26.3244L186.079 27.3962L183.981 25.5347V14.7832ZM104.659 22.7594H107.547V27.8587C107.141 27.712 106.723 27.5992 106.306 27.5203C106.024 27.4864 105.46 27.4638 104.591 27.4638C104.084 27.4526 103.587 27.509 103.091 27.6218C102.673 27.7233 102.166 27.9038 101.59 28.1407L104.659 22.7594ZM223.906 12.0079L224.696 11.331V33.8944L223.906 33.4206V12.0079ZM225.644 10.7444L228.058 9.19881L229.795 10.4624V25.3203C228.972 24.8465 228.532 24.5983 228.453 24.5645L227.584 24.2824C226.941 24.1245 226.287 23.9665 225.644 23.8086V10.7444ZM14.4618 12.4818C14.7213 12.4818 14.9356 12.4592 15.0936 12.4028V26.7869C14.1008 27.2833 13.0064 27.5428 11.8896 27.5428C11.2352 27.5428 10.5696 27.4638 9.91527 27.3059C9.26093 27.148 8.74197 26.9336 8.36967 26.6741L12.8711 22.1727V12.29C13.0629 12.3915 13.2659 12.4592 13.4803 12.4705C13.7059 12.4818 13.8526 12.4931 13.9315 12.4931L14.4618 12.4818ZM241.382 15.1781L244.462 17.4683V26.6741L243.514 27.7459L241.382 25.9295V15.1781ZM62.409 11.4213L63.8756 10.2706L66.9217 13.3505V27.5428L65.692 28.8064L62.409 25.6475V11.4213ZM259.32 15.1781C259.658 15.1217 259.997 15.0314 260.301 14.8961L257.616 19.6795H255.597V14.5012C256.375 14.9976 257.278 15.2571 258.203 15.2571C258.609 15.2571 258.981 15.2232 259.32 15.1781ZM256.353 22.5676H259.241V27.6669C258.835 27.5203 258.417 27.4074 258 27.3285C257.718 27.2833 257.154 27.2721 256.274 27.2721C255.766 27.2608 255.258 27.3172 254.773 27.43C254.277 27.5654 253.78 27.7346 253.307 27.949L256.353 22.5676ZM72.7994 11.4213L74.2322 10.2706L77.3121 13.3505V27.5428L76.0486 28.8064L72.8107 25.6475L72.7994 11.4213Z" fill="#454545" fill-opacity="0.6"/>
</g>
<defs>
<clipPath id="clip0_55_283">
<rect width="274.167" height="40" fill="white" transform="translate(0 0.0380859)"/>
</clipPath>
</defs>
</svg>
